G04 #@! TF.FileFunction,Copper,L1,Top,Signal*
%FSLAX46Y46*%
G04 Gerber Fmt 4.6, Leading zero omitted, Abs format (unit mm)*
G04 Created by KiCad (PCBNEW 4.0.4+e1-6308~48~ubuntu16.04.1-stable) date Thu Nov 17 16:07:10 2016*
%MOMM*%
%LPD*%
G01*
G04 APERTURE LIST*
%ADD10C,0.100000*%
%ADD11C,0.200000*%
%ADD12R,2.032000X1.727200*%
%ADD13O,3.000000X1.100000*%
%ADD14O,2.032000X1.727200*%
%ADD15R,1.727200X2.032000*%
%ADD16O,1.727200X2.032000*%
%ADD17C,0.254000*%
G04 APERTURE END LIST*
D10*
D11*
X144939048Y-135818571D02*
X145700953Y-135818571D01*
X145700953Y-136104286D02*
X144939048Y-136104286D01*
X146177143Y-136342381D02*
X146177143Y-135342381D01*
X146748572Y-136342381D02*
X146320000Y-135770952D01*
X146748572Y-135342381D02*
X146177143Y-135913810D01*
X147462858Y-135342381D02*
X147462858Y-136056667D01*
X147415238Y-136199524D01*
X147320000Y-136294762D01*
X147177143Y-136342381D01*
X147081905Y-136342381D01*
X147939048Y-136342381D02*
X147939048Y-135342381D01*
X148177143Y-135342381D01*
X148320001Y-135390000D01*
X148415239Y-135485238D01*
X148462858Y-135580476D01*
X148510477Y-135770952D01*
X148510477Y-135913810D01*
X148462858Y-136104286D01*
X148415239Y-136199524D01*
X148320001Y-136294762D01*
X148177143Y-136342381D01*
X147939048Y-136342381D01*
X148939048Y-135818571D02*
X149700953Y-135818571D01*
X149700953Y-136104286D02*
X148939048Y-136104286D01*
X161798096Y-103640000D02*
X161702858Y-103592381D01*
X161560001Y-103592381D01*
X161417143Y-103640000D01*
X161321905Y-103735238D01*
X161274286Y-103830476D01*
X161226667Y-104020952D01*
X161226667Y-104163810D01*
X161274286Y-104354286D01*
X161321905Y-104449524D01*
X161417143Y-104544762D01*
X161560001Y-104592381D01*
X161655239Y-104592381D01*
X161798096Y-104544762D01*
X161845715Y-104497143D01*
X161845715Y-104163810D01*
X161655239Y-104163810D01*
X162274286Y-104592381D02*
X162274286Y-103592381D01*
X162845715Y-104592381D01*
X162845715Y-103592381D01*
X163321905Y-104592381D02*
X163321905Y-103592381D01*
X163560000Y-103592381D01*
X163702858Y-103640000D01*
X163798096Y-103735238D01*
X163845715Y-103830476D01*
X163893334Y-104020952D01*
X163893334Y-104163810D01*
X163845715Y-104354286D01*
X163798096Y-104449524D01*
X163702858Y-104544762D01*
X163560000Y-104592381D01*
X163321905Y-104592381D01*
X159813810Y-108720000D02*
X159718572Y-108672381D01*
X159575715Y-108672381D01*
X159432857Y-108720000D01*
X159337619Y-108815238D01*
X159290000Y-108910476D01*
X159242381Y-109100952D01*
X159242381Y-109243810D01*
X159290000Y-109434286D01*
X159337619Y-109529524D01*
X159432857Y-109624762D01*
X159575715Y-109672381D01*
X159670953Y-109672381D01*
X159813810Y-109624762D01*
X159861429Y-109577143D01*
X159861429Y-109243810D01*
X159670953Y-109243810D01*
X160290000Y-109672381D02*
X160290000Y-108672381D01*
X160670953Y-108672381D01*
X160766191Y-108720000D01*
X160813810Y-108767619D01*
X160861429Y-108862857D01*
X160861429Y-109005714D01*
X160813810Y-109100952D01*
X160766191Y-109148571D01*
X160670953Y-109196190D01*
X160290000Y-109196190D01*
X161290000Y-109672381D02*
X161290000Y-108672381D01*
X161956666Y-108672381D02*
X162147143Y-108672381D01*
X162242381Y-108720000D01*
X162337619Y-108815238D01*
X162385238Y-109005714D01*
X162385238Y-109339048D01*
X162337619Y-109529524D01*
X162242381Y-109624762D01*
X162147143Y-109672381D01*
X161956666Y-109672381D01*
X161861428Y-109624762D01*
X161766190Y-109529524D01*
X161718571Y-109339048D01*
X161718571Y-109005714D01*
X161766190Y-108815238D01*
X161861428Y-108720000D01*
X161956666Y-108672381D01*
X163337619Y-109672381D02*
X162766190Y-109672381D01*
X163051904Y-109672381D02*
X163051904Y-108672381D01*
X162956666Y-108815238D01*
X162861428Y-108910476D01*
X162766190Y-108958095D01*
X159813810Y-111260000D02*
X159718572Y-111212381D01*
X159575715Y-111212381D01*
X159432857Y-111260000D01*
X159337619Y-111355238D01*
X159290000Y-111450476D01*
X159242381Y-111640952D01*
X159242381Y-111783810D01*
X159290000Y-111974286D01*
X159337619Y-112069524D01*
X159432857Y-112164762D01*
X159575715Y-112212381D01*
X159670953Y-112212381D01*
X159813810Y-112164762D01*
X159861429Y-112117143D01*
X159861429Y-111783810D01*
X159670953Y-111783810D01*
X160290000Y-112212381D02*
X160290000Y-111212381D01*
X160670953Y-111212381D01*
X160766191Y-111260000D01*
X160813810Y-111307619D01*
X160861429Y-111402857D01*
X160861429Y-111545714D01*
X160813810Y-111640952D01*
X160766191Y-111688571D01*
X160670953Y-111736190D01*
X160290000Y-111736190D01*
X161290000Y-112212381D02*
X161290000Y-111212381D01*
X161956666Y-111212381D02*
X162147143Y-111212381D01*
X162242381Y-111260000D01*
X162337619Y-111355238D01*
X162385238Y-111545714D01*
X162385238Y-111879048D01*
X162337619Y-112069524D01*
X162242381Y-112164762D01*
X162147143Y-112212381D01*
X161956666Y-112212381D01*
X161861428Y-112164762D01*
X161766190Y-112069524D01*
X161718571Y-111879048D01*
X161718571Y-111545714D01*
X161766190Y-111355238D01*
X161861428Y-111260000D01*
X161956666Y-111212381D01*
X162766190Y-111307619D02*
X162813809Y-111260000D01*
X162909047Y-111212381D01*
X163147143Y-111212381D01*
X163242381Y-111260000D01*
X163290000Y-111307619D01*
X163337619Y-111402857D01*
X163337619Y-111498095D01*
X163290000Y-111640952D01*
X162718571Y-112212381D01*
X163337619Y-112212381D01*
X159766191Y-122324762D02*
X159909048Y-122372381D01*
X160147144Y-122372381D01*
X160242382Y-122324762D01*
X160290001Y-122277143D01*
X160337620Y-122181905D01*
X160337620Y-122086667D01*
X160290001Y-121991429D01*
X160242382Y-121943810D01*
X160147144Y-121896190D01*
X159956667Y-121848571D01*
X159861429Y-121800952D01*
X159813810Y-121753333D01*
X159766191Y-121658095D01*
X159766191Y-121562857D01*
X159813810Y-121467619D01*
X159861429Y-121420000D01*
X159956667Y-121372381D01*
X160194763Y-121372381D01*
X160337620Y-121420000D01*
X161337620Y-122277143D02*
X161290001Y-122324762D01*
X161147144Y-122372381D01*
X161051906Y-122372381D01*
X160909048Y-122324762D01*
X160813810Y-122229524D01*
X160766191Y-122134286D01*
X160718572Y-121943810D01*
X160718572Y-121800952D01*
X160766191Y-121610476D01*
X160813810Y-121515238D01*
X160909048Y-121420000D01*
X161051906Y-121372381D01*
X161147144Y-121372381D01*
X161290001Y-121420000D01*
X161337620Y-121467619D01*
X161766191Y-122372381D02*
X161766191Y-121372381D01*
X162337620Y-122372381D02*
X161909048Y-121800952D01*
X162337620Y-121372381D02*
X161766191Y-121943810D01*
X162766191Y-122372381D02*
X162766191Y-121372381D01*
X160385239Y-124817143D02*
X160337620Y-124864762D01*
X160194763Y-124912381D01*
X160099525Y-124912381D01*
X159956667Y-124864762D01*
X159861429Y-124769524D01*
X159813810Y-124674286D01*
X159766191Y-124483810D01*
X159766191Y-124340952D01*
X159813810Y-124150476D01*
X159861429Y-124055238D01*
X159956667Y-123960000D01*
X160099525Y-123912381D01*
X160194763Y-123912381D01*
X160337620Y-123960000D01*
X160385239Y-124007619D01*
X160766191Y-124864762D02*
X160909048Y-124912381D01*
X161147144Y-124912381D01*
X161242382Y-124864762D01*
X161290001Y-124817143D01*
X161337620Y-124721905D01*
X161337620Y-124626667D01*
X161290001Y-124531429D01*
X161242382Y-124483810D01*
X161147144Y-124436190D01*
X160956667Y-124388571D01*
X160861429Y-124340952D01*
X160813810Y-124293333D01*
X160766191Y-124198095D01*
X160766191Y-124102857D01*
X160813810Y-124007619D01*
X160861429Y-123960000D01*
X160956667Y-123912381D01*
X161194763Y-123912381D01*
X161337620Y-123960000D01*
X162099525Y-124388571D02*
X162242382Y-124436190D01*
X162290001Y-124483810D01*
X162337620Y-124579048D01*
X162337620Y-124721905D01*
X162290001Y-124817143D01*
X162242382Y-124864762D01*
X162147144Y-124912381D01*
X161766191Y-124912381D01*
X161766191Y-123912381D01*
X162099525Y-123912381D01*
X162194763Y-123960000D01*
X162242382Y-124007619D01*
X162290001Y-124102857D01*
X162290001Y-124198095D01*
X162242382Y-124293333D01*
X162194763Y-124340952D01*
X162099525Y-124388571D01*
X161766191Y-124388571D01*
X162766191Y-124912381D02*
X162766191Y-123912381D01*
X159980476Y-127404762D02*
X160123333Y-127452381D01*
X160361429Y-127452381D01*
X160456667Y-127404762D01*
X160504286Y-127357143D01*
X160551905Y-127261905D01*
X160551905Y-127166667D01*
X160504286Y-127071429D01*
X160456667Y-127023810D01*
X160361429Y-126976190D01*
X160170952Y-126928571D01*
X160075714Y-126880952D01*
X160028095Y-126833333D01*
X159980476Y-126738095D01*
X159980476Y-126642857D01*
X160028095Y-126547619D01*
X160075714Y-126500000D01*
X160170952Y-126452381D01*
X160409048Y-126452381D01*
X160551905Y-126500000D01*
X160980476Y-127452381D02*
X160980476Y-126452381D01*
X161218571Y-126452381D01*
X161361429Y-126500000D01*
X161456667Y-126595238D01*
X161504286Y-126690476D01*
X161551905Y-126880952D01*
X161551905Y-127023810D01*
X161504286Y-127214286D01*
X161456667Y-127309524D01*
X161361429Y-127404762D01*
X161218571Y-127452381D01*
X160980476Y-127452381D01*
X162170952Y-126452381D02*
X162361429Y-126452381D01*
X162456667Y-126500000D01*
X162551905Y-126595238D01*
X162599524Y-126785714D01*
X162599524Y-127119048D01*
X162551905Y-127309524D01*
X162456667Y-127404762D01*
X162361429Y-127452381D01*
X162170952Y-127452381D01*
X162075714Y-127404762D01*
X161980476Y-127309524D01*
X161932857Y-127119048D01*
X161932857Y-126785714D01*
X161980476Y-126595238D01*
X162075714Y-126500000D01*
X162170952Y-126452381D01*
X160385239Y-129897143D02*
X160337620Y-129944762D01*
X160194763Y-129992381D01*
X160099525Y-129992381D01*
X159956667Y-129944762D01*
X159861429Y-129849524D01*
X159813810Y-129754286D01*
X159766191Y-129563810D01*
X159766191Y-129420952D01*
X159813810Y-129230476D01*
X159861429Y-129135238D01*
X159956667Y-129040000D01*
X160099525Y-128992381D01*
X160194763Y-128992381D01*
X160337620Y-129040000D01*
X160385239Y-129087619D01*
X160766191Y-129944762D02*
X160909048Y-129992381D01*
X161147144Y-129992381D01*
X161242382Y-129944762D01*
X161290001Y-129897143D01*
X161337620Y-129801905D01*
X161337620Y-129706667D01*
X161290001Y-129611429D01*
X161242382Y-129563810D01*
X161147144Y-129516190D01*
X160956667Y-129468571D01*
X160861429Y-129420952D01*
X160813810Y-129373333D01*
X160766191Y-129278095D01*
X160766191Y-129182857D01*
X160813810Y-129087619D01*
X160861429Y-129040000D01*
X160956667Y-128992381D01*
X161194763Y-128992381D01*
X161337620Y-129040000D01*
X162099525Y-129468571D02*
X162242382Y-129516190D01*
X162290001Y-129563810D01*
X162337620Y-129659048D01*
X162337620Y-129801905D01*
X162290001Y-129897143D01*
X162242382Y-129944762D01*
X162147144Y-129992381D01*
X161766191Y-129992381D01*
X161766191Y-128992381D01*
X162099525Y-128992381D01*
X162194763Y-129040000D01*
X162242382Y-129087619D01*
X162290001Y-129182857D01*
X162290001Y-129278095D01*
X162242382Y-129373333D01*
X162194763Y-129420952D01*
X162099525Y-129468571D01*
X161766191Y-129468571D01*
X162766191Y-129992381D02*
X162766191Y-128992381D01*
X134246857Y-134262857D02*
X134294476Y-134215238D01*
X134437333Y-134167619D01*
X134532571Y-134167619D01*
X134675429Y-134215238D01*
X134770667Y-134310476D01*
X134818286Y-134405714D01*
X134865905Y-134596190D01*
X134865905Y-134739048D01*
X134818286Y-134929524D01*
X134770667Y-135024762D01*
X134675429Y-135120000D01*
X134532571Y-135167619D01*
X134437333Y-135167619D01*
X134294476Y-135120000D01*
X134246857Y-135072381D01*
X133294476Y-134167619D02*
X133865905Y-134167619D01*
X133580191Y-134167619D02*
X133580191Y-135167619D01*
X133675429Y-135024762D01*
X133770667Y-134929524D01*
X133865905Y-134881905D01*
X132913524Y-135072381D02*
X132865905Y-135120000D01*
X132770667Y-135167619D01*
X132532571Y-135167619D01*
X132437333Y-135120000D01*
X132389714Y-135072381D01*
X132342095Y-134977143D01*
X132342095Y-134881905D01*
X132389714Y-134739048D01*
X132961143Y-134167619D01*
X132342095Y-134167619D01*
X134246857Y-131722857D02*
X134294476Y-131675238D01*
X134437333Y-131627619D01*
X134532571Y-131627619D01*
X134675429Y-131675238D01*
X134770667Y-131770476D01*
X134818286Y-131865714D01*
X134865905Y-132056190D01*
X134865905Y-132199048D01*
X134818286Y-132389524D01*
X134770667Y-132484762D01*
X134675429Y-132580000D01*
X134532571Y-132627619D01*
X134437333Y-132627619D01*
X134294476Y-132580000D01*
X134246857Y-132532381D01*
X133294476Y-131627619D02*
X133865905Y-131627619D01*
X133580191Y-131627619D02*
X133580191Y-132627619D01*
X133675429Y-132484762D01*
X133770667Y-132389524D01*
X133865905Y-132341905D01*
X132342095Y-131627619D02*
X132913524Y-131627619D01*
X132627810Y-131627619D02*
X132627810Y-132627619D01*
X132723048Y-132484762D01*
X132818286Y-132389524D01*
X132913524Y-132341905D01*
X134246857Y-129182857D02*
X134294476Y-129135238D01*
X134437333Y-129087619D01*
X134532571Y-129087619D01*
X134675429Y-129135238D01*
X134770667Y-129230476D01*
X134818286Y-129325714D01*
X134865905Y-129516190D01*
X134865905Y-129659048D01*
X134818286Y-129849524D01*
X134770667Y-129944762D01*
X134675429Y-130040000D01*
X134532571Y-130087619D01*
X134437333Y-130087619D01*
X134294476Y-130040000D01*
X134246857Y-129992381D01*
X133294476Y-129087619D02*
X133865905Y-129087619D01*
X133580191Y-129087619D02*
X133580191Y-130087619D01*
X133675429Y-129944762D01*
X133770667Y-129849524D01*
X133865905Y-129801905D01*
X132675429Y-130087619D02*
X132580190Y-130087619D01*
X132484952Y-130040000D01*
X132437333Y-129992381D01*
X132389714Y-129897143D01*
X132342095Y-129706667D01*
X132342095Y-129468571D01*
X132389714Y-129278095D01*
X132437333Y-129182857D01*
X132484952Y-129135238D01*
X132580190Y-129087619D01*
X132675429Y-129087619D01*
X132770667Y-129135238D01*
X132818286Y-129182857D01*
X132865905Y-129278095D01*
X132913524Y-129468571D01*
X132913524Y-129706667D01*
X132865905Y-129897143D01*
X132818286Y-129992381D01*
X132770667Y-130040000D01*
X132675429Y-130087619D01*
X133770666Y-126642857D02*
X133818285Y-126595238D01*
X133961142Y-126547619D01*
X134056380Y-126547619D01*
X134199238Y-126595238D01*
X134294476Y-126690476D01*
X134342095Y-126785714D01*
X134389714Y-126976190D01*
X134389714Y-127119048D01*
X134342095Y-127309524D01*
X134294476Y-127404762D01*
X134199238Y-127500000D01*
X134056380Y-127547619D01*
X133961142Y-127547619D01*
X133818285Y-127500000D01*
X133770666Y-127452381D01*
X133294476Y-126547619D02*
X133104000Y-126547619D01*
X133008761Y-126595238D01*
X132961142Y-126642857D01*
X132865904Y-126785714D01*
X132818285Y-126976190D01*
X132818285Y-127357143D01*
X132865904Y-127452381D01*
X132913523Y-127500000D01*
X133008761Y-127547619D01*
X133199238Y-127547619D01*
X133294476Y-127500000D01*
X133342095Y-127452381D01*
X133389714Y-127357143D01*
X133389714Y-127119048D01*
X133342095Y-127023810D01*
X133294476Y-126976190D01*
X133199238Y-126928571D01*
X133008761Y-126928571D01*
X132913523Y-126976190D01*
X132865904Y-127023810D01*
X132818285Y-127119048D01*
X133770666Y-124102857D02*
X133818285Y-124055238D01*
X133961142Y-124007619D01*
X134056380Y-124007619D01*
X134199238Y-124055238D01*
X134294476Y-124150476D01*
X134342095Y-124245714D01*
X134389714Y-124436190D01*
X134389714Y-124579048D01*
X134342095Y-124769524D01*
X134294476Y-124864762D01*
X134199238Y-124960000D01*
X134056380Y-125007619D01*
X133961142Y-125007619D01*
X133818285Y-124960000D01*
X133770666Y-124912381D01*
X133199238Y-124579048D02*
X133294476Y-124626667D01*
X133342095Y-124674286D01*
X133389714Y-124769524D01*
X133389714Y-124817143D01*
X133342095Y-124912381D01*
X133294476Y-124960000D01*
X133199238Y-125007619D01*
X133008761Y-125007619D01*
X132913523Y-124960000D01*
X132865904Y-124912381D01*
X132818285Y-124817143D01*
X132818285Y-124769524D01*
X132865904Y-124674286D01*
X132913523Y-124626667D01*
X133008761Y-124579048D01*
X133199238Y-124579048D01*
X133294476Y-124531429D01*
X133342095Y-124483810D01*
X133389714Y-124388571D01*
X133389714Y-124198095D01*
X133342095Y-124102857D01*
X133294476Y-124055238D01*
X133199238Y-124007619D01*
X133008761Y-124007619D01*
X132913523Y-124055238D01*
X132865904Y-124102857D01*
X132818285Y-124198095D01*
X132818285Y-124388571D01*
X132865904Y-124483810D01*
X132913523Y-124531429D01*
X133008761Y-124579048D01*
X133770666Y-121562857D02*
X133818285Y-121515238D01*
X133961142Y-121467619D01*
X134056380Y-121467619D01*
X134199238Y-121515238D01*
X134294476Y-121610476D01*
X134342095Y-121705714D01*
X134389714Y-121896190D01*
X134389714Y-122039048D01*
X134342095Y-122229524D01*
X134294476Y-122324762D01*
X134199238Y-122420000D01*
X134056380Y-122467619D01*
X133961142Y-122467619D01*
X133818285Y-122420000D01*
X133770666Y-122372381D01*
X133437333Y-122467619D02*
X132770666Y-122467619D01*
X133199238Y-121467619D01*
X133770666Y-119022857D02*
X133818285Y-118975238D01*
X133961142Y-118927619D01*
X134056380Y-118927619D01*
X134199238Y-118975238D01*
X134294476Y-119070476D01*
X134342095Y-119165714D01*
X134389714Y-119356190D01*
X134389714Y-119499048D01*
X134342095Y-119689524D01*
X134294476Y-119784762D01*
X134199238Y-119880000D01*
X134056380Y-119927619D01*
X133961142Y-119927619D01*
X133818285Y-119880000D01*
X133770666Y-119832381D01*
X132913523Y-119594286D02*
X132913523Y-118927619D01*
X133151619Y-119975238D02*
X133389714Y-119260952D01*
X132770666Y-119260952D01*
X133770666Y-116482857D02*
X133818285Y-116435238D01*
X133961142Y-116387619D01*
X134056380Y-116387619D01*
X134199238Y-116435238D01*
X134294476Y-116530476D01*
X134342095Y-116625714D01*
X134389714Y-116816190D01*
X134389714Y-116959048D01*
X134342095Y-117149524D01*
X134294476Y-117244762D01*
X134199238Y-117340000D01*
X134056380Y-117387619D01*
X133961142Y-117387619D01*
X133818285Y-117340000D01*
X133770666Y-117292381D01*
X132865904Y-117387619D02*
X133342095Y-117387619D01*
X133389714Y-116911429D01*
X133342095Y-116959048D01*
X133246857Y-117006667D01*
X133008761Y-117006667D01*
X132913523Y-116959048D01*
X132865904Y-116911429D01*
X132818285Y-116816190D01*
X132818285Y-116578095D01*
X132865904Y-116482857D01*
X132913523Y-116435238D01*
X133008761Y-116387619D01*
X133246857Y-116387619D01*
X133342095Y-116435238D01*
X133389714Y-116482857D01*
X133770666Y-113942857D02*
X133818285Y-113895238D01*
X133961142Y-113847619D01*
X134056380Y-113847619D01*
X134199238Y-113895238D01*
X134294476Y-113990476D01*
X134342095Y-114085714D01*
X134389714Y-114276190D01*
X134389714Y-114419048D01*
X134342095Y-114609524D01*
X134294476Y-114704762D01*
X134199238Y-114800000D01*
X134056380Y-114847619D01*
X133961142Y-114847619D01*
X133818285Y-114800000D01*
X133770666Y-114752381D01*
X132913523Y-114514286D02*
X132913523Y-113847619D01*
X133151619Y-114895238D02*
X133389714Y-114180952D01*
X132770666Y-114180952D01*
X133770666Y-111402857D02*
X133818285Y-111355238D01*
X133961142Y-111307619D01*
X134056380Y-111307619D01*
X134199238Y-111355238D01*
X134294476Y-111450476D01*
X134342095Y-111545714D01*
X134389714Y-111736190D01*
X134389714Y-111879048D01*
X134342095Y-112069524D01*
X134294476Y-112164762D01*
X134199238Y-112260000D01*
X134056380Y-112307619D01*
X133961142Y-112307619D01*
X133818285Y-112260000D01*
X133770666Y-112212381D01*
X133437333Y-112307619D02*
X132818285Y-112307619D01*
X133151619Y-111926667D01*
X133008761Y-111926667D01*
X132913523Y-111879048D01*
X132865904Y-111831429D01*
X132818285Y-111736190D01*
X132818285Y-111498095D01*
X132865904Y-111402857D01*
X132913523Y-111355238D01*
X133008761Y-111307619D01*
X133294476Y-111307619D01*
X133389714Y-111355238D01*
X133437333Y-111402857D01*
X133770666Y-108862857D02*
X133818285Y-108815238D01*
X133961142Y-108767619D01*
X134056380Y-108767619D01*
X134199238Y-108815238D01*
X134294476Y-108910476D01*
X134342095Y-109005714D01*
X134389714Y-109196190D01*
X134389714Y-109339048D01*
X134342095Y-109529524D01*
X134294476Y-109624762D01*
X134199238Y-109720000D01*
X134056380Y-109767619D01*
X133961142Y-109767619D01*
X133818285Y-109720000D01*
X133770666Y-109672381D01*
X133389714Y-109672381D02*
X133342095Y-109720000D01*
X133246857Y-109767619D01*
X133008761Y-109767619D01*
X132913523Y-109720000D01*
X132865904Y-109672381D01*
X132818285Y-109577143D01*
X132818285Y-109481905D01*
X132865904Y-109339048D01*
X133437333Y-108767619D01*
X132818285Y-108767619D01*
X133770666Y-106322857D02*
X133818285Y-106275238D01*
X133961142Y-106227619D01*
X134056380Y-106227619D01*
X134199238Y-106275238D01*
X134294476Y-106370476D01*
X134342095Y-106465714D01*
X134389714Y-106656190D01*
X134389714Y-106799048D01*
X134342095Y-106989524D01*
X134294476Y-107084762D01*
X134199238Y-107180000D01*
X134056380Y-107227619D01*
X133961142Y-107227619D01*
X133818285Y-107180000D01*
X133770666Y-107132381D01*
X132818285Y-106227619D02*
X133389714Y-106227619D01*
X133104000Y-106227619D02*
X133104000Y-107227619D01*
X133199238Y-107084762D01*
X133294476Y-106989524D01*
X133389714Y-106941905D01*
X134365904Y-104640000D02*
X134461142Y-104687619D01*
X134603999Y-104687619D01*
X134746857Y-104640000D01*
X134842095Y-104544762D01*
X134889714Y-104449524D01*
X134937333Y-104259048D01*
X134937333Y-104116190D01*
X134889714Y-103925714D01*
X134842095Y-103830476D01*
X134746857Y-103735238D01*
X134603999Y-103687619D01*
X134508761Y-103687619D01*
X134365904Y-103735238D01*
X134318285Y-103782857D01*
X134318285Y-104116190D01*
X134508761Y-104116190D01*
X133889714Y-103687619D02*
X133889714Y-104687619D01*
X133318285Y-103687619D01*
X133318285Y-104687619D01*
X132842095Y-103687619D02*
X132842095Y-104687619D01*
X132604000Y-104687619D01*
X132461142Y-104640000D01*
X132365904Y-104544762D01*
X132318285Y-104449524D01*
X132270666Y-104259048D01*
X132270666Y-104116190D01*
X132318285Y-103925714D01*
X132365904Y-103830476D01*
X132461142Y-103735238D01*
X132604000Y-103687619D01*
X132842095Y-103687619D01*
X151900000Y-107949904D02*
X151852381Y-108045142D01*
X151852381Y-108187999D01*
X151900000Y-108330857D01*
X151995238Y-108426095D01*
X152090476Y-108473714D01*
X152280952Y-108521333D01*
X152423810Y-108521333D01*
X152614286Y-108473714D01*
X152709524Y-108426095D01*
X152804762Y-108330857D01*
X152852381Y-108187999D01*
X152852381Y-108092761D01*
X152804762Y-107949904D01*
X152757143Y-107902285D01*
X152423810Y-107902285D01*
X152423810Y-108092761D01*
X152852381Y-107473714D02*
X151852381Y-107473714D01*
X152852381Y-106902285D01*
X151852381Y-106902285D01*
X152852381Y-106426095D02*
X151852381Y-106426095D01*
X151852381Y-106188000D01*
X151900000Y-106045142D01*
X151995238Y-105949904D01*
X152090476Y-105902285D01*
X152280952Y-105854666D01*
X152423810Y-105854666D01*
X152614286Y-105902285D01*
X152709524Y-105949904D01*
X152804762Y-106045142D01*
X152852381Y-106188000D01*
X152852381Y-106426095D01*
X160528096Y-134120000D02*
X160432858Y-134072381D01*
X160290001Y-134072381D01*
X160147143Y-134120000D01*
X160051905Y-134215238D01*
X160004286Y-134310476D01*
X159956667Y-134500952D01*
X159956667Y-134643810D01*
X160004286Y-134834286D01*
X160051905Y-134929524D01*
X160147143Y-135024762D01*
X160290001Y-135072381D01*
X160385239Y-135072381D01*
X160528096Y-135024762D01*
X160575715Y-134977143D01*
X160575715Y-134643810D01*
X160385239Y-134643810D01*
X161004286Y-135072381D02*
X161004286Y-134072381D01*
X161575715Y-135072381D01*
X161575715Y-134072381D01*
X162051905Y-135072381D02*
X162051905Y-134072381D01*
X162290000Y-134072381D01*
X162432858Y-134120000D01*
X162528096Y-134215238D01*
X162575715Y-134310476D01*
X162623334Y-134500952D01*
X162623334Y-134643810D01*
X162575715Y-134834286D01*
X162528096Y-134929524D01*
X162432858Y-135024762D01*
X162290000Y-135072381D01*
X162051905Y-135072381D01*
D12*
X123143333Y-104140000D03*
D13*
X123143333Y-106680000D03*
X123143333Y-109220000D03*
D14*
X123143333Y-111760000D03*
X123143333Y-114300000D03*
X123143333Y-116840000D03*
X123143333Y-119380000D03*
X123143333Y-121920000D03*
X123143333Y-124460000D03*
X123143333Y-127000000D03*
X123143333Y-129540000D03*
X123143333Y-132080000D03*
X123143333Y-134620000D03*
D15*
X152400000Y-104140000D03*
D16*
X154940000Y-104140000D03*
X157480000Y-104140000D03*
X160020000Y-104140000D03*
D12*
X165100000Y-104140000D03*
D14*
X165100000Y-106680000D03*
X165100000Y-109220000D03*
X165100000Y-111760000D03*
D12*
X165100000Y-134620000D03*
D14*
X165100000Y-132080000D03*
X165100000Y-129540000D03*
X165100000Y-127000000D03*
X165100000Y-124460000D03*
X165100000Y-121920000D03*
D12*
X129540000Y-104140000D03*
D13*
X129540000Y-106680000D03*
X129540000Y-109220000D03*
D14*
X129540000Y-111760000D03*
X129540000Y-114300000D03*
X129540000Y-116840000D03*
X129540000Y-119380000D03*
X129540000Y-121920000D03*
X129540000Y-124460000D03*
X129540000Y-127000000D03*
X129540000Y-129540000D03*
X129540000Y-132080000D03*
X129540000Y-134620000D03*
D17*
G36*
X169495000Y-139015000D02*
X120065000Y-139015000D01*
X120065000Y-109220000D01*
X120966506Y-109220000D01*
X121056709Y-109673480D01*
X121313584Y-110057922D01*
X121698026Y-110314797D01*
X122151506Y-110405000D01*
X122340910Y-110405000D01*
X121898918Y-110700330D01*
X121574062Y-111186511D01*
X121459988Y-111760000D01*
X121574062Y-112333489D01*
X121898918Y-112819670D01*
X122213699Y-113030000D01*
X121898918Y-113240330D01*
X121574062Y-113726511D01*
X121459988Y-114300000D01*
X121574062Y-114873489D01*
X121898918Y-115359670D01*
X122213699Y-115570000D01*
X121898918Y-115780330D01*
X121574062Y-116266511D01*
X121459988Y-116840000D01*
X121574062Y-117413489D01*
X121898918Y-117899670D01*
X122213699Y-118110000D01*
X121898918Y-118320330D01*
X121574062Y-118806511D01*
X121459988Y-119380000D01*
X121574062Y-119953489D01*
X121898918Y-120439670D01*
X122213699Y-120650000D01*
X121898918Y-120860330D01*
X121574062Y-121346511D01*
X121459988Y-121920000D01*
X121574062Y-122493489D01*
X121898918Y-122979670D01*
X122213699Y-123190000D01*
X121898918Y-123400330D01*
X121574062Y-123886511D01*
X121459988Y-124460000D01*
X121574062Y-125033489D01*
X121898918Y-125519670D01*
X122213699Y-125730000D01*
X121898918Y-125940330D01*
X121574062Y-126426511D01*
X121459988Y-127000000D01*
X121574062Y-127573489D01*
X121898918Y-128059670D01*
X122213699Y-128270000D01*
X121898918Y-128480330D01*
X121574062Y-128966511D01*
X121459988Y-129540000D01*
X121574062Y-130113489D01*
X121898918Y-130599670D01*
X122213699Y-130810000D01*
X121898918Y-131020330D01*
X121574062Y-131506511D01*
X121459988Y-132080000D01*
X121574062Y-132653489D01*
X121898918Y-133139670D01*
X122213699Y-133350000D01*
X121898918Y-133560330D01*
X121574062Y-134046511D01*
X121459988Y-134620000D01*
X121574062Y-135193489D01*
X121898918Y-135679670D01*
X122385099Y-136004526D01*
X122958588Y-136118600D01*
X123328078Y-136118600D01*
X123901567Y-136004526D01*
X124387748Y-135679670D01*
X124712604Y-135193489D01*
X124826678Y-134620000D01*
X124712604Y-134046511D01*
X124387748Y-133560330D01*
X124072967Y-133350000D01*
X124387748Y-133139670D01*
X124712604Y-132653489D01*
X124826678Y-132080000D01*
X124712604Y-131506511D01*
X124387748Y-131020330D01*
X124072967Y-130810000D01*
X124387748Y-130599670D01*
X124712604Y-130113489D01*
X124826678Y-129540000D01*
X124712604Y-128966511D01*
X124387748Y-128480330D01*
X124072967Y-128270000D01*
X124387748Y-128059670D01*
X124712604Y-127573489D01*
X124826678Y-127000000D01*
X124712604Y-126426511D01*
X124387748Y-125940330D01*
X124072967Y-125730000D01*
X124387748Y-125519670D01*
X124712604Y-125033489D01*
X124826678Y-124460000D01*
X124712604Y-123886511D01*
X124387748Y-123400330D01*
X124072967Y-123190000D01*
X124387748Y-122979670D01*
X124712604Y-122493489D01*
X124826678Y-121920000D01*
X124712604Y-121346511D01*
X124387748Y-120860330D01*
X124072967Y-120650000D01*
X124387748Y-120439670D01*
X124712604Y-119953489D01*
X124826678Y-119380000D01*
X124712604Y-118806511D01*
X124387748Y-118320330D01*
X124072967Y-118110000D01*
X124387748Y-117899670D01*
X124712604Y-117413489D01*
X124826678Y-116840000D01*
X124712604Y-116266511D01*
X124387748Y-115780330D01*
X124072967Y-115570000D01*
X124387748Y-115359670D01*
X124712604Y-114873489D01*
X124826678Y-114300000D01*
X124712604Y-113726511D01*
X124387748Y-113240330D01*
X124072967Y-113030000D01*
X124387748Y-112819670D01*
X124712604Y-112333489D01*
X124826678Y-111760000D01*
X124712604Y-111186511D01*
X124387748Y-110700330D01*
X123945756Y-110405000D01*
X124135160Y-110405000D01*
X124588640Y-110314797D01*
X124973082Y-110057922D01*
X125229957Y-109673480D01*
X125320160Y-109220000D01*
X127363173Y-109220000D01*
X127453376Y-109673480D01*
X127710251Y-110057922D01*
X128094693Y-110314797D01*
X128548173Y-110405000D01*
X128737577Y-110405000D01*
X128295585Y-110700330D01*
X127970729Y-111186511D01*
X127856655Y-111760000D01*
X127970729Y-112333489D01*
X128295585Y-112819670D01*
X128610366Y-113030000D01*
X128295585Y-113240330D01*
X127970729Y-113726511D01*
X127856655Y-114300000D01*
X127970729Y-114873489D01*
X128295585Y-115359670D01*
X128610366Y-115570000D01*
X128295585Y-115780330D01*
X127970729Y-116266511D01*
X127856655Y-116840000D01*
X127970729Y-117413489D01*
X128295585Y-117899670D01*
X128610366Y-118110000D01*
X128295585Y-118320330D01*
X127970729Y-118806511D01*
X127856655Y-119380000D01*
X127970729Y-119953489D01*
X128295585Y-120439670D01*
X128610366Y-120650000D01*
X128295585Y-120860330D01*
X127970729Y-121346511D01*
X127856655Y-121920000D01*
X127970729Y-122493489D01*
X128295585Y-122979670D01*
X128610366Y-123190000D01*
X128295585Y-123400330D01*
X127970729Y-123886511D01*
X127856655Y-124460000D01*
X127970729Y-125033489D01*
X128295585Y-125519670D01*
X128610366Y-125730000D01*
X128295585Y-125940330D01*
X127970729Y-126426511D01*
X127856655Y-127000000D01*
X127970729Y-127573489D01*
X128295585Y-128059670D01*
X128610366Y-128270000D01*
X128295585Y-128480330D01*
X127970729Y-128966511D01*
X127856655Y-129540000D01*
X127970729Y-130113489D01*
X128295585Y-130599670D01*
X128610366Y-130810000D01*
X128295585Y-131020330D01*
X127970729Y-131506511D01*
X127856655Y-132080000D01*
X127970729Y-132653489D01*
X128295585Y-133139670D01*
X128610366Y-133350000D01*
X128295585Y-133560330D01*
X127970729Y-134046511D01*
X127856655Y-134620000D01*
X127970729Y-135193489D01*
X128295585Y-135679670D01*
X128781766Y-136004526D01*
X129355255Y-136118600D01*
X129724745Y-136118600D01*
X130298234Y-136004526D01*
X130784415Y-135679670D01*
X131109271Y-135193489D01*
X131223345Y-134620000D01*
X131109271Y-134046511D01*
X130784415Y-133560330D01*
X130469634Y-133350000D01*
X130784415Y-133139670D01*
X131109271Y-132653489D01*
X131223345Y-132080000D01*
X131109271Y-131506511D01*
X130784415Y-131020330D01*
X130469634Y-130810000D01*
X130784415Y-130599670D01*
X131109271Y-130113489D01*
X131223345Y-129540000D01*
X131109271Y-128966511D01*
X130784415Y-128480330D01*
X130469634Y-128270000D01*
X130784415Y-128059670D01*
X131109271Y-127573489D01*
X131223345Y-127000000D01*
X131109271Y-126426511D01*
X130784415Y-125940330D01*
X130469634Y-125730000D01*
X130784415Y-125519670D01*
X131109271Y-125033489D01*
X131223345Y-124460000D01*
X131109271Y-123886511D01*
X130784415Y-123400330D01*
X130469634Y-123190000D01*
X130784415Y-122979670D01*
X131109271Y-122493489D01*
X131223345Y-121920000D01*
X131109271Y-121346511D01*
X130784415Y-120860330D01*
X130469634Y-120650000D01*
X130784415Y-120439670D01*
X131109271Y-119953489D01*
X131223345Y-119380000D01*
X131109271Y-118806511D01*
X130784415Y-118320330D01*
X130469634Y-118110000D01*
X130784415Y-117899670D01*
X131109271Y-117413489D01*
X131223345Y-116840000D01*
X131109271Y-116266511D01*
X130784415Y-115780330D01*
X130469634Y-115570000D01*
X130784415Y-115359670D01*
X131109271Y-114873489D01*
X131223345Y-114300000D01*
X131109271Y-113726511D01*
X130784415Y-113240330D01*
X130469634Y-113030000D01*
X130784415Y-112819670D01*
X131109271Y-112333489D01*
X131223345Y-111760000D01*
X131109271Y-111186511D01*
X130784415Y-110700330D01*
X130342423Y-110405000D01*
X130531827Y-110405000D01*
X130985307Y-110314797D01*
X131369749Y-110057922D01*
X131626624Y-109673480D01*
X131716827Y-109220000D01*
X131626624Y-108766520D01*
X131369749Y-108382078D01*
X130985307Y-108125203D01*
X130531827Y-108035000D01*
X128548173Y-108035000D01*
X128094693Y-108125203D01*
X127710251Y-108382078D01*
X127453376Y-108766520D01*
X127363173Y-109220000D01*
X125320160Y-109220000D01*
X125229957Y-108766520D01*
X124973082Y-108382078D01*
X124588640Y-108125203D01*
X124135160Y-108035000D01*
X122151506Y-108035000D01*
X121698026Y-108125203D01*
X121313584Y-108382078D01*
X121056709Y-108766520D01*
X120966506Y-109220000D01*
X120065000Y-109220000D01*
X120065000Y-106680000D01*
X120966506Y-106680000D01*
X121056709Y-107133480D01*
X121313584Y-107517922D01*
X121698026Y-107774797D01*
X122151506Y-107865000D01*
X124135160Y-107865000D01*
X124588640Y-107774797D01*
X124973082Y-107517922D01*
X125229957Y-107133480D01*
X125320160Y-106680000D01*
X127363173Y-106680000D01*
X127453376Y-107133480D01*
X127710251Y-107517922D01*
X128094693Y-107774797D01*
X128548173Y-107865000D01*
X130531827Y-107865000D01*
X130985307Y-107774797D01*
X131369749Y-107517922D01*
X131626624Y-107133480D01*
X131716827Y-106680000D01*
X131626624Y-106226520D01*
X131369749Y-105842078D01*
X130985307Y-105585203D01*
X130862716Y-105560818D01*
X131007441Y-105467690D01*
X131152431Y-105255490D01*
X131203440Y-105003600D01*
X131203440Y-103276400D01*
X131159162Y-103041083D01*
X131020090Y-102824959D01*
X130807890Y-102679969D01*
X130556000Y-102628960D01*
X128524000Y-102628960D01*
X128288683Y-102673238D01*
X128072559Y-102812310D01*
X127927569Y-103024510D01*
X127876560Y-103276400D01*
X127876560Y-105003600D01*
X127920838Y-105238917D01*
X128059910Y-105455041D01*
X128215298Y-105561213D01*
X128094693Y-105585203D01*
X127710251Y-105842078D01*
X127453376Y-106226520D01*
X127363173Y-106680000D01*
X125320160Y-106680000D01*
X125229957Y-106226520D01*
X124973082Y-105842078D01*
X124588640Y-105585203D01*
X124466049Y-105560818D01*
X124610774Y-105467690D01*
X124755764Y-105255490D01*
X124806773Y-105003600D01*
X124806773Y-103276400D01*
X124762495Y-103041083D01*
X124623423Y-102824959D01*
X124411223Y-102679969D01*
X124159333Y-102628960D01*
X122127333Y-102628960D01*
X121892016Y-102673238D01*
X121675892Y-102812310D01*
X121530902Y-103024510D01*
X121479893Y-103276400D01*
X121479893Y-105003600D01*
X121524171Y-105238917D01*
X121663243Y-105455041D01*
X121818631Y-105561213D01*
X121698026Y-105585203D01*
X121313584Y-105842078D01*
X121056709Y-106226520D01*
X120966506Y-106680000D01*
X120065000Y-106680000D01*
X120065000Y-102605000D01*
X131445190Y-102605000D01*
X131445190Y-105575000D01*
X131992809Y-105575000D01*
X131992809Y-128005000D01*
X131516619Y-128005000D01*
X131516619Y-136055000D01*
X135691381Y-136055000D01*
X135691381Y-134455000D01*
X144065953Y-134455000D01*
X144065953Y-137425000D01*
X150574048Y-137425000D01*
X150574048Y-134455000D01*
X144065953Y-134455000D01*
X135691381Y-134455000D01*
X135691381Y-128005000D01*
X135215190Y-128005000D01*
X135215190Y-120485000D01*
X158940715Y-120485000D01*
X158940715Y-125995000D01*
X159155000Y-125995000D01*
X159155000Y-128105000D01*
X158940715Y-128105000D01*
X158940715Y-131075000D01*
X163639286Y-131075000D01*
X163639286Y-130275956D01*
X163855585Y-130599670D01*
X164165069Y-130806461D01*
X164133651Y-130834532D01*
X163855585Y-131020330D01*
X163751723Y-131175771D01*
X163749268Y-131177964D01*
X163746713Y-131183269D01*
X163530729Y-131506511D01*
X163416655Y-132080000D01*
X163530729Y-132653489D01*
X163746713Y-132976731D01*
X163749268Y-132982036D01*
X163751723Y-132984229D01*
X163855585Y-133139670D01*
X163869913Y-133149243D01*
X163848683Y-133153238D01*
X163632559Y-133292310D01*
X163487569Y-133504510D01*
X163448810Y-133695908D01*
X163448810Y-133185000D01*
X159131191Y-133185000D01*
X159131191Y-136155000D01*
X163448810Y-136155000D01*
X163448810Y-135548703D01*
X163480838Y-135718917D01*
X163619910Y-135935041D01*
X163832110Y-136080031D01*
X164084000Y-136131040D01*
X166116000Y-136131040D01*
X166351317Y-136086762D01*
X166567441Y-135947690D01*
X166712431Y-135735490D01*
X166763440Y-135483600D01*
X166763440Y-133756400D01*
X166719162Y-133521083D01*
X166580090Y-133304959D01*
X166367890Y-133159969D01*
X166326561Y-133151600D01*
X166344415Y-133139670D01*
X166448277Y-132984229D01*
X166450732Y-132982036D01*
X166453287Y-132976731D01*
X166669271Y-132653489D01*
X166783345Y-132080000D01*
X166669271Y-131506511D01*
X166453287Y-131183269D01*
X166450732Y-131177964D01*
X166448277Y-131175771D01*
X166344415Y-131020330D01*
X166066349Y-130834532D01*
X166034931Y-130806461D01*
X166344415Y-130599670D01*
X166669271Y-130113489D01*
X166783345Y-129540000D01*
X166669271Y-128966511D01*
X166344415Y-128480330D01*
X166029634Y-128270000D01*
X166344415Y-128059670D01*
X166669271Y-127573489D01*
X166783345Y-127000000D01*
X166669271Y-126426511D01*
X166344415Y-125940330D01*
X166029634Y-125730000D01*
X166344415Y-125519670D01*
X166669271Y-125033489D01*
X166783345Y-124460000D01*
X166669271Y-123886511D01*
X166344415Y-123400330D01*
X166029634Y-123190000D01*
X166344415Y-122979670D01*
X166669271Y-122493489D01*
X166783345Y-121920000D01*
X166669271Y-121346511D01*
X166344415Y-120860330D01*
X165858234Y-120535474D01*
X165284745Y-120421400D01*
X164915255Y-120421400D01*
X164341766Y-120535474D01*
X163855585Y-120860330D01*
X163639286Y-121184044D01*
X163639286Y-120485000D01*
X158940715Y-120485000D01*
X135215190Y-120485000D01*
X135215190Y-105575000D01*
X135762809Y-105575000D01*
X135762809Y-103124000D01*
X150888960Y-103124000D01*
X150888960Y-105156000D01*
X150933238Y-105391317D01*
X150965000Y-105440677D01*
X150965000Y-109346809D01*
X153935000Y-109346809D01*
X153935000Y-105420944D01*
X154366511Y-105709271D01*
X154940000Y-105823345D01*
X155513489Y-105709271D01*
X155999670Y-105384415D01*
X156210000Y-105069634D01*
X156420330Y-105384415D01*
X156906511Y-105709271D01*
X157480000Y-105823345D01*
X158053489Y-105709271D01*
X158539670Y-105384415D01*
X158750000Y-105069634D01*
X158960330Y-105384415D01*
X159446511Y-105709271D01*
X160020000Y-105823345D01*
X160593489Y-105709271D01*
X160644779Y-105675000D01*
X163819056Y-105675000D01*
X163751723Y-105775771D01*
X163749268Y-105777964D01*
X163746713Y-105783269D01*
X163530729Y-106106511D01*
X163416655Y-106680000D01*
X163530729Y-107253489D01*
X163746713Y-107576731D01*
X163749268Y-107582036D01*
X163751723Y-107584229D01*
X163855585Y-107739670D01*
X163923426Y-107785000D01*
X158416905Y-107785000D01*
X158416905Y-113295000D01*
X164163095Y-113295000D01*
X164163095Y-113025142D01*
X164341766Y-113144526D01*
X164915255Y-113258600D01*
X165284745Y-113258600D01*
X165858234Y-113144526D01*
X166344415Y-112819670D01*
X166669271Y-112333489D01*
X166783345Y-111760000D01*
X166669271Y-111186511D01*
X166344415Y-110700330D01*
X166029634Y-110490000D01*
X166344415Y-110279670D01*
X166669271Y-109793489D01*
X166783345Y-109220000D01*
X166669271Y-108646511D01*
X166344415Y-108160330D01*
X166034931Y-107953539D01*
X166066349Y-107925468D01*
X166344415Y-107739670D01*
X166448277Y-107584229D01*
X166450732Y-107582036D01*
X166453287Y-107576731D01*
X166669271Y-107253489D01*
X166783345Y-106680000D01*
X166669271Y-106106511D01*
X166453287Y-105783269D01*
X166450732Y-105777964D01*
X166448277Y-105775771D01*
X166344415Y-105620330D01*
X166330087Y-105610757D01*
X166351317Y-105606762D01*
X166567441Y-105467690D01*
X166712431Y-105255490D01*
X166763440Y-105003600D01*
X166763440Y-103276400D01*
X166719162Y-103041083D01*
X166580090Y-102824959D01*
X166367890Y-102679969D01*
X166116000Y-102628960D01*
X164084000Y-102628960D01*
X163848683Y-102673238D01*
X163799323Y-102705000D01*
X160794440Y-102705000D01*
X160593489Y-102570729D01*
X160020000Y-102456655D01*
X159446511Y-102570729D01*
X158960330Y-102895585D01*
X158750000Y-103210366D01*
X158539670Y-102895585D01*
X158053489Y-102570729D01*
X157480000Y-102456655D01*
X156906511Y-102570729D01*
X156420330Y-102895585D01*
X156210000Y-103210366D01*
X155999670Y-102895585D01*
X155513489Y-102570729D01*
X154940000Y-102456655D01*
X154366511Y-102570729D01*
X153880330Y-102895585D01*
X153870757Y-102909913D01*
X153866762Y-102888683D01*
X153727690Y-102672559D01*
X153515490Y-102527569D01*
X153263600Y-102476560D01*
X151536400Y-102476560D01*
X151301083Y-102520838D01*
X151084959Y-102659910D01*
X150939969Y-102872110D01*
X150888960Y-103124000D01*
X135762809Y-103124000D01*
X135762809Y-102605000D01*
X131445190Y-102605000D01*
X120065000Y-102605000D01*
X120065000Y-99745000D01*
X169495000Y-99745000D01*
X169495000Y-139015000D01*
X169495000Y-139015000D01*
G37*
X169495000Y-139015000D02*
X120065000Y-139015000D01*
X120065000Y-109220000D01*
X120966506Y-109220000D01*
X121056709Y-109673480D01*
X121313584Y-110057922D01*
X121698026Y-110314797D01*
X122151506Y-110405000D01*
X122340910Y-110405000D01*
X121898918Y-110700330D01*
X121574062Y-111186511D01*
X121459988Y-111760000D01*
X121574062Y-112333489D01*
X121898918Y-112819670D01*
X122213699Y-113030000D01*
X121898918Y-113240330D01*
X121574062Y-113726511D01*
X121459988Y-114300000D01*
X121574062Y-114873489D01*
X121898918Y-115359670D01*
X122213699Y-115570000D01*
X121898918Y-115780330D01*
X121574062Y-116266511D01*
X121459988Y-116840000D01*
X121574062Y-117413489D01*
X121898918Y-117899670D01*
X122213699Y-118110000D01*
X121898918Y-118320330D01*
X121574062Y-118806511D01*
X121459988Y-119380000D01*
X121574062Y-119953489D01*
X121898918Y-120439670D01*
X122213699Y-120650000D01*
X121898918Y-120860330D01*
X121574062Y-121346511D01*
X121459988Y-121920000D01*
X121574062Y-122493489D01*
X121898918Y-122979670D01*
X122213699Y-123190000D01*
X121898918Y-123400330D01*
X121574062Y-123886511D01*
X121459988Y-124460000D01*
X121574062Y-125033489D01*
X121898918Y-125519670D01*
X122213699Y-125730000D01*
X121898918Y-125940330D01*
X121574062Y-126426511D01*
X121459988Y-127000000D01*
X121574062Y-127573489D01*
X121898918Y-128059670D01*
X122213699Y-128270000D01*
X121898918Y-128480330D01*
X121574062Y-128966511D01*
X121459988Y-129540000D01*
X121574062Y-130113489D01*
X121898918Y-130599670D01*
X122213699Y-130810000D01*
X121898918Y-131020330D01*
X121574062Y-131506511D01*
X121459988Y-132080000D01*
X121574062Y-132653489D01*
X121898918Y-133139670D01*
X122213699Y-133350000D01*
X121898918Y-133560330D01*
X121574062Y-134046511D01*
X121459988Y-134620000D01*
X121574062Y-135193489D01*
X121898918Y-135679670D01*
X122385099Y-136004526D01*
X122958588Y-136118600D01*
X123328078Y-136118600D01*
X123901567Y-136004526D01*
X124387748Y-135679670D01*
X124712604Y-135193489D01*
X124826678Y-134620000D01*
X124712604Y-134046511D01*
X124387748Y-133560330D01*
X124072967Y-133350000D01*
X124387748Y-133139670D01*
X124712604Y-132653489D01*
X124826678Y-132080000D01*
X124712604Y-131506511D01*
X124387748Y-131020330D01*
X124072967Y-130810000D01*
X124387748Y-130599670D01*
X124712604Y-130113489D01*
X124826678Y-129540000D01*
X124712604Y-128966511D01*
X124387748Y-128480330D01*
X124072967Y-128270000D01*
X124387748Y-128059670D01*
X124712604Y-127573489D01*
X124826678Y-127000000D01*
X124712604Y-126426511D01*
X124387748Y-125940330D01*
X124072967Y-125730000D01*
X124387748Y-125519670D01*
X124712604Y-125033489D01*
X124826678Y-124460000D01*
X124712604Y-123886511D01*
X124387748Y-123400330D01*
X124072967Y-123190000D01*
X124387748Y-122979670D01*
X124712604Y-122493489D01*
X124826678Y-121920000D01*
X124712604Y-121346511D01*
X124387748Y-120860330D01*
X124072967Y-120650000D01*
X124387748Y-120439670D01*
X124712604Y-119953489D01*
X124826678Y-119380000D01*
X124712604Y-118806511D01*
X124387748Y-118320330D01*
X124072967Y-118110000D01*
X124387748Y-117899670D01*
X124712604Y-117413489D01*
X124826678Y-116840000D01*
X124712604Y-116266511D01*
X124387748Y-115780330D01*
X124072967Y-115570000D01*
X124387748Y-115359670D01*
X124712604Y-114873489D01*
X124826678Y-114300000D01*
X124712604Y-113726511D01*
X124387748Y-113240330D01*
X124072967Y-113030000D01*
X124387748Y-112819670D01*
X124712604Y-112333489D01*
X124826678Y-111760000D01*
X124712604Y-111186511D01*
X124387748Y-110700330D01*
X123945756Y-110405000D01*
X124135160Y-110405000D01*
X124588640Y-110314797D01*
X124973082Y-110057922D01*
X125229957Y-109673480D01*
X125320160Y-109220000D01*
X127363173Y-109220000D01*
X127453376Y-109673480D01*
X127710251Y-110057922D01*
X128094693Y-110314797D01*
X128548173Y-110405000D01*
X128737577Y-110405000D01*
X128295585Y-110700330D01*
X127970729Y-111186511D01*
X127856655Y-111760000D01*
X127970729Y-112333489D01*
X128295585Y-112819670D01*
X128610366Y-113030000D01*
X128295585Y-113240330D01*
X127970729Y-113726511D01*
X127856655Y-114300000D01*
X127970729Y-114873489D01*
X128295585Y-115359670D01*
X128610366Y-115570000D01*
X128295585Y-115780330D01*
X127970729Y-116266511D01*
X127856655Y-116840000D01*
X127970729Y-117413489D01*
X128295585Y-117899670D01*
X128610366Y-118110000D01*
X128295585Y-118320330D01*
X127970729Y-118806511D01*
X127856655Y-119380000D01*
X127970729Y-119953489D01*
X128295585Y-120439670D01*
X128610366Y-120650000D01*
X128295585Y-120860330D01*
X127970729Y-121346511D01*
X127856655Y-121920000D01*
X127970729Y-122493489D01*
X128295585Y-122979670D01*
X128610366Y-123190000D01*
X128295585Y-123400330D01*
X127970729Y-123886511D01*
X127856655Y-124460000D01*
X127970729Y-125033489D01*
X128295585Y-125519670D01*
X128610366Y-125730000D01*
X128295585Y-125940330D01*
X127970729Y-126426511D01*
X127856655Y-127000000D01*
X127970729Y-127573489D01*
X128295585Y-128059670D01*
X128610366Y-128270000D01*
X128295585Y-128480330D01*
X127970729Y-128966511D01*
X127856655Y-129540000D01*
X127970729Y-130113489D01*
X128295585Y-130599670D01*
X128610366Y-130810000D01*
X128295585Y-131020330D01*
X127970729Y-131506511D01*
X127856655Y-132080000D01*
X127970729Y-132653489D01*
X128295585Y-133139670D01*
X128610366Y-133350000D01*
X128295585Y-133560330D01*
X127970729Y-134046511D01*
X127856655Y-134620000D01*
X127970729Y-135193489D01*
X128295585Y-135679670D01*
X128781766Y-136004526D01*
X129355255Y-136118600D01*
X129724745Y-136118600D01*
X130298234Y-136004526D01*
X130784415Y-135679670D01*
X131109271Y-135193489D01*
X131223345Y-134620000D01*
X131109271Y-134046511D01*
X130784415Y-133560330D01*
X130469634Y-133350000D01*
X130784415Y-133139670D01*
X131109271Y-132653489D01*
X131223345Y-132080000D01*
X131109271Y-131506511D01*
X130784415Y-131020330D01*
X130469634Y-130810000D01*
X130784415Y-130599670D01*
X131109271Y-130113489D01*
X131223345Y-129540000D01*
X131109271Y-128966511D01*
X130784415Y-128480330D01*
X130469634Y-128270000D01*
X130784415Y-128059670D01*
X131109271Y-127573489D01*
X131223345Y-127000000D01*
X131109271Y-126426511D01*
X130784415Y-125940330D01*
X130469634Y-125730000D01*
X130784415Y-125519670D01*
X131109271Y-125033489D01*
X131223345Y-124460000D01*
X131109271Y-123886511D01*
X130784415Y-123400330D01*
X130469634Y-123190000D01*
X130784415Y-122979670D01*
X131109271Y-122493489D01*
X131223345Y-121920000D01*
X131109271Y-121346511D01*
X130784415Y-120860330D01*
X130469634Y-120650000D01*
X130784415Y-120439670D01*
X131109271Y-119953489D01*
X131223345Y-119380000D01*
X131109271Y-118806511D01*
X130784415Y-118320330D01*
X130469634Y-118110000D01*
X130784415Y-117899670D01*
X131109271Y-117413489D01*
X131223345Y-116840000D01*
X131109271Y-116266511D01*
X130784415Y-115780330D01*
X130469634Y-115570000D01*
X130784415Y-115359670D01*
X131109271Y-114873489D01*
X131223345Y-114300000D01*
X131109271Y-113726511D01*
X130784415Y-113240330D01*
X130469634Y-113030000D01*
X130784415Y-112819670D01*
X131109271Y-112333489D01*
X131223345Y-111760000D01*
X131109271Y-111186511D01*
X130784415Y-110700330D01*
X130342423Y-110405000D01*
X130531827Y-110405000D01*
X130985307Y-110314797D01*
X131369749Y-110057922D01*
X131626624Y-109673480D01*
X131716827Y-109220000D01*
X131626624Y-108766520D01*
X131369749Y-108382078D01*
X130985307Y-108125203D01*
X130531827Y-108035000D01*
X128548173Y-108035000D01*
X128094693Y-108125203D01*
X127710251Y-108382078D01*
X127453376Y-108766520D01*
X127363173Y-109220000D01*
X125320160Y-109220000D01*
X125229957Y-108766520D01*
X124973082Y-108382078D01*
X124588640Y-108125203D01*
X124135160Y-108035000D01*
X122151506Y-108035000D01*
X121698026Y-108125203D01*
X121313584Y-108382078D01*
X121056709Y-108766520D01*
X120966506Y-109220000D01*
X120065000Y-109220000D01*
X120065000Y-106680000D01*
X120966506Y-106680000D01*
X121056709Y-107133480D01*
X121313584Y-107517922D01*
X121698026Y-107774797D01*
X122151506Y-107865000D01*
X124135160Y-107865000D01*
X124588640Y-107774797D01*
X124973082Y-107517922D01*
X125229957Y-107133480D01*
X125320160Y-106680000D01*
X127363173Y-106680000D01*
X127453376Y-107133480D01*
X127710251Y-107517922D01*
X128094693Y-107774797D01*
X128548173Y-107865000D01*
X130531827Y-107865000D01*
X130985307Y-107774797D01*
X131369749Y-107517922D01*
X131626624Y-107133480D01*
X131716827Y-106680000D01*
X131626624Y-106226520D01*
X131369749Y-105842078D01*
X130985307Y-105585203D01*
X130862716Y-105560818D01*
X131007441Y-105467690D01*
X131152431Y-105255490D01*
X131203440Y-105003600D01*
X131203440Y-103276400D01*
X131159162Y-103041083D01*
X131020090Y-102824959D01*
X130807890Y-102679969D01*
X130556000Y-102628960D01*
X128524000Y-102628960D01*
X128288683Y-102673238D01*
X128072559Y-102812310D01*
X127927569Y-103024510D01*
X127876560Y-103276400D01*
X127876560Y-105003600D01*
X127920838Y-105238917D01*
X128059910Y-105455041D01*
X128215298Y-105561213D01*
X128094693Y-105585203D01*
X127710251Y-105842078D01*
X127453376Y-106226520D01*
X127363173Y-106680000D01*
X125320160Y-106680000D01*
X125229957Y-106226520D01*
X124973082Y-105842078D01*
X124588640Y-105585203D01*
X124466049Y-105560818D01*
X124610774Y-105467690D01*
X124755764Y-105255490D01*
X124806773Y-105003600D01*
X124806773Y-103276400D01*
X124762495Y-103041083D01*
X124623423Y-102824959D01*
X124411223Y-102679969D01*
X124159333Y-102628960D01*
X122127333Y-102628960D01*
X121892016Y-102673238D01*
X121675892Y-102812310D01*
X121530902Y-103024510D01*
X121479893Y-103276400D01*
X121479893Y-105003600D01*
X121524171Y-105238917D01*
X121663243Y-105455041D01*
X121818631Y-105561213D01*
X121698026Y-105585203D01*
X121313584Y-105842078D01*
X121056709Y-106226520D01*
X120966506Y-106680000D01*
X120065000Y-106680000D01*
X120065000Y-102605000D01*
X131445190Y-102605000D01*
X131445190Y-105575000D01*
X131992809Y-105575000D01*
X131992809Y-128005000D01*
X131516619Y-128005000D01*
X131516619Y-136055000D01*
X135691381Y-136055000D01*
X135691381Y-134455000D01*
X144065953Y-134455000D01*
X144065953Y-137425000D01*
X150574048Y-137425000D01*
X150574048Y-134455000D01*
X144065953Y-134455000D01*
X135691381Y-134455000D01*
X135691381Y-128005000D01*
X135215190Y-128005000D01*
X135215190Y-120485000D01*
X158940715Y-120485000D01*
X158940715Y-125995000D01*
X159155000Y-125995000D01*
X159155000Y-128105000D01*
X158940715Y-128105000D01*
X158940715Y-131075000D01*
X163639286Y-131075000D01*
X163639286Y-130275956D01*
X163855585Y-130599670D01*
X164165069Y-130806461D01*
X164133651Y-130834532D01*
X163855585Y-131020330D01*
X163751723Y-131175771D01*
X163749268Y-131177964D01*
X163746713Y-131183269D01*
X163530729Y-131506511D01*
X163416655Y-132080000D01*
X163530729Y-132653489D01*
X163746713Y-132976731D01*
X163749268Y-132982036D01*
X163751723Y-132984229D01*
X163855585Y-133139670D01*
X163869913Y-133149243D01*
X163848683Y-133153238D01*
X163632559Y-133292310D01*
X163487569Y-133504510D01*
X163448810Y-133695908D01*
X163448810Y-133185000D01*
X159131191Y-133185000D01*
X159131191Y-136155000D01*
X163448810Y-136155000D01*
X163448810Y-135548703D01*
X163480838Y-135718917D01*
X163619910Y-135935041D01*
X163832110Y-136080031D01*
X164084000Y-136131040D01*
X166116000Y-136131040D01*
X166351317Y-136086762D01*
X166567441Y-135947690D01*
X166712431Y-135735490D01*
X166763440Y-135483600D01*
X166763440Y-133756400D01*
X166719162Y-133521083D01*
X166580090Y-133304959D01*
X166367890Y-133159969D01*
X166326561Y-133151600D01*
X166344415Y-133139670D01*
X166448277Y-132984229D01*
X166450732Y-132982036D01*
X166453287Y-132976731D01*
X166669271Y-132653489D01*
X166783345Y-132080000D01*
X166669271Y-131506511D01*
X166453287Y-131183269D01*
X166450732Y-131177964D01*
X166448277Y-131175771D01*
X166344415Y-131020330D01*
X166066349Y-130834532D01*
X166034931Y-130806461D01*
X166344415Y-130599670D01*
X166669271Y-130113489D01*
X166783345Y-129540000D01*
X166669271Y-128966511D01*
X166344415Y-128480330D01*
X166029634Y-128270000D01*
X166344415Y-128059670D01*
X166669271Y-127573489D01*
X166783345Y-127000000D01*
X166669271Y-126426511D01*
X166344415Y-125940330D01*
X166029634Y-125730000D01*
X166344415Y-125519670D01*
X166669271Y-125033489D01*
X166783345Y-124460000D01*
X166669271Y-123886511D01*
X166344415Y-123400330D01*
X166029634Y-123190000D01*
X166344415Y-122979670D01*
X166669271Y-122493489D01*
X166783345Y-121920000D01*
X166669271Y-121346511D01*
X166344415Y-120860330D01*
X165858234Y-120535474D01*
X165284745Y-120421400D01*
X164915255Y-120421400D01*
X164341766Y-120535474D01*
X163855585Y-120860330D01*
X163639286Y-121184044D01*
X163639286Y-120485000D01*
X158940715Y-120485000D01*
X135215190Y-120485000D01*
X135215190Y-105575000D01*
X135762809Y-105575000D01*
X135762809Y-103124000D01*
X150888960Y-103124000D01*
X150888960Y-105156000D01*
X150933238Y-105391317D01*
X150965000Y-105440677D01*
X150965000Y-109346809D01*
X153935000Y-109346809D01*
X153935000Y-105420944D01*
X154366511Y-105709271D01*
X154940000Y-105823345D01*
X155513489Y-105709271D01*
X155999670Y-105384415D01*
X156210000Y-105069634D01*
X156420330Y-105384415D01*
X156906511Y-105709271D01*
X157480000Y-105823345D01*
X158053489Y-105709271D01*
X158539670Y-105384415D01*
X158750000Y-105069634D01*
X158960330Y-105384415D01*
X159446511Y-105709271D01*
X160020000Y-105823345D01*
X160593489Y-105709271D01*
X160644779Y-105675000D01*
X163819056Y-105675000D01*
X163751723Y-105775771D01*
X163749268Y-105777964D01*
X163746713Y-105783269D01*
X163530729Y-106106511D01*
X163416655Y-106680000D01*
X163530729Y-107253489D01*
X163746713Y-107576731D01*
X163749268Y-107582036D01*
X163751723Y-107584229D01*
X163855585Y-107739670D01*
X163923426Y-107785000D01*
X158416905Y-107785000D01*
X158416905Y-113295000D01*
X164163095Y-113295000D01*
X164163095Y-113025142D01*
X164341766Y-113144526D01*
X164915255Y-113258600D01*
X165284745Y-113258600D01*
X165858234Y-113144526D01*
X166344415Y-112819670D01*
X166669271Y-112333489D01*
X166783345Y-111760000D01*
X166669271Y-111186511D01*
X166344415Y-110700330D01*
X166029634Y-110490000D01*
X166344415Y-110279670D01*
X166669271Y-109793489D01*
X166783345Y-109220000D01*
X166669271Y-108646511D01*
X166344415Y-108160330D01*
X166034931Y-107953539D01*
X166066349Y-107925468D01*
X166344415Y-107739670D01*
X166448277Y-107584229D01*
X166450732Y-107582036D01*
X166453287Y-107576731D01*
X166669271Y-107253489D01*
X166783345Y-106680000D01*
X166669271Y-106106511D01*
X166453287Y-105783269D01*
X166450732Y-105777964D01*
X166448277Y-105775771D01*
X166344415Y-105620330D01*
X166330087Y-105610757D01*
X166351317Y-105606762D01*
X166567441Y-105467690D01*
X166712431Y-105255490D01*
X166763440Y-105003600D01*
X166763440Y-103276400D01*
X166719162Y-103041083D01*
X166580090Y-102824959D01*
X166367890Y-102679969D01*
X166116000Y-102628960D01*
X164084000Y-102628960D01*
X163848683Y-102673238D01*
X163799323Y-102705000D01*
X160794440Y-102705000D01*
X160593489Y-102570729D01*
X160020000Y-102456655D01*
X159446511Y-102570729D01*
X158960330Y-102895585D01*
X158750000Y-103210366D01*
X158539670Y-102895585D01*
X158053489Y-102570729D01*
X157480000Y-102456655D01*
X156906511Y-102570729D01*
X156420330Y-102895585D01*
X156210000Y-103210366D01*
X155999670Y-102895585D01*
X155513489Y-102570729D01*
X154940000Y-102456655D01*
X154366511Y-102570729D01*
X153880330Y-102895585D01*
X153870757Y-102909913D01*
X153866762Y-102888683D01*
X153727690Y-102672559D01*
X153515490Y-102527569D01*
X153263600Y-102476560D01*
X151536400Y-102476560D01*
X151301083Y-102520838D01*
X151084959Y-102659910D01*
X150939969Y-102872110D01*
X150888960Y-103124000D01*
X135762809Y-103124000D01*
X135762809Y-102605000D01*
X131445190Y-102605000D01*
X120065000Y-102605000D01*
X120065000Y-99745000D01*
X169495000Y-99745000D01*
X169495000Y-139015000D01*
G36*
X163530729Y-127573489D02*
X163855585Y-128059670D01*
X164170366Y-128270000D01*
X163855585Y-128480330D01*
X163639286Y-128804044D01*
X163639286Y-128105000D01*
X163425000Y-128105000D01*
X163425000Y-127041953D01*
X163530729Y-127573489D01*
X163530729Y-127573489D01*
G37*
X163530729Y-127573489D02*
X163855585Y-128059670D01*
X164170366Y-128270000D01*
X163855585Y-128480330D01*
X163639286Y-128804044D01*
X163639286Y-128105000D01*
X163425000Y-128105000D01*
X163425000Y-127041953D01*
X163530729Y-127573489D01*
G36*
X163855585Y-125519670D02*
X164170366Y-125730000D01*
X163855585Y-125940330D01*
X163530729Y-126426511D01*
X163425000Y-126958047D01*
X163425000Y-125995000D01*
X163639286Y-125995000D01*
X163639286Y-125195956D01*
X163855585Y-125519670D01*
X163855585Y-125519670D01*
G37*
X163855585Y-125519670D02*
X164170366Y-125730000D01*
X163855585Y-125940330D01*
X163530729Y-126426511D01*
X163425000Y-126958047D01*
X163425000Y-125995000D01*
X163639286Y-125995000D01*
X163639286Y-125195956D01*
X163855585Y-125519670D01*
G36*
X163855585Y-122979670D02*
X164170366Y-123190000D01*
X163855585Y-123400330D01*
X163639286Y-123724044D01*
X163639286Y-122655956D01*
X163855585Y-122979670D01*
X163855585Y-122979670D01*
G37*
X163855585Y-122979670D02*
X164170366Y-123190000D01*
X163855585Y-123400330D01*
X163639286Y-123724044D01*
X163639286Y-122655956D01*
X163855585Y-122979670D01*
G36*
X164170366Y-110490000D02*
X164163095Y-110494858D01*
X164163095Y-110485142D01*
X164170366Y-110490000D01*
X164170366Y-110490000D01*
G37*
X164170366Y-110490000D02*
X164163095Y-110494858D01*
X164163095Y-110485142D01*
X164170366Y-110490000D01*
G36*
X164165069Y-107953539D02*
X164163095Y-107954858D01*
X164163095Y-107951775D01*
X164165069Y-107953539D01*
X164165069Y-107953539D01*
G37*
X164165069Y-107953539D02*
X164163095Y-107954858D01*
X164163095Y-107951775D01*
X164165069Y-107953539D01*
M02*
