G04 #@! TF.FileFunction,Copper,L2,Bot,Signal*
%FSLAX46Y46*%
G04 Gerber Fmt 4.6, Leading zero omitted, Abs format (unit mm)*
G04 Created by KiCad (PCBNEW 4.0.4+e1-6308~48~ubuntu16.04.1-stable) date Thu Nov 17 16:07:10 2016*
%MOMM*%
%LPD*%
G01*
G04 APERTURE LIST*
%ADD10C,0.100000*%
%ADD11C,0.200000*%
%ADD12R,1.250000X1.000000*%
%ADD13R,2.032000X1.727200*%
%ADD14O,3.000000X1.100000*%
%ADD15O,2.032000X1.727200*%
%ADD16R,1.727200X2.032000*%
%ADD17O,1.727200X2.032000*%
%ADD18R,1.498600X0.248920*%
%ADD19R,0.700000X1.300000*%
%ADD20C,0.500000*%
%ADD21C,0.250000*%
%ADD22C,0.300000*%
%ADD23C,0.254000*%
G04 APERTURE END LIST*
D10*
D11*
X146407143Y-108418334D02*
X146454762Y-108370715D01*
X146502381Y-108227858D01*
X146502381Y-108132620D01*
X146454762Y-107989762D01*
X146359524Y-107894524D01*
X146264286Y-107846905D01*
X146073810Y-107799286D01*
X145930952Y-107799286D01*
X145740476Y-107846905D01*
X145645238Y-107894524D01*
X145550000Y-107989762D01*
X145502381Y-108132620D01*
X145502381Y-108227858D01*
X145550000Y-108370715D01*
X145597619Y-108418334D01*
X145597619Y-108799286D02*
X145550000Y-108846905D01*
X145502381Y-108942143D01*
X145502381Y-109180239D01*
X145550000Y-109275477D01*
X145597619Y-109323096D01*
X145692857Y-109370715D01*
X145788095Y-109370715D01*
X145930952Y-109323096D01*
X146502381Y-108751667D01*
X146502381Y-109370715D01*
X148947143Y-108418334D02*
X148994762Y-108370715D01*
X149042381Y-108227858D01*
X149042381Y-108132620D01*
X148994762Y-107989762D01*
X148899524Y-107894524D01*
X148804286Y-107846905D01*
X148613810Y-107799286D01*
X148470952Y-107799286D01*
X148280476Y-107846905D01*
X148185238Y-107894524D01*
X148090000Y-107989762D01*
X148042381Y-108132620D01*
X148042381Y-108227858D01*
X148090000Y-108370715D01*
X148137619Y-108418334D01*
X149042381Y-109370715D02*
X149042381Y-108799286D01*
X149042381Y-109085000D02*
X148042381Y-109085000D01*
X148185238Y-108989762D01*
X148280476Y-108894524D01*
X148328095Y-108799286D01*
X143041666Y-129992381D02*
X143375000Y-129516190D01*
X143613095Y-129992381D02*
X143613095Y-128992381D01*
X143232142Y-128992381D01*
X143136904Y-129040000D01*
X143089285Y-129087619D01*
X143041666Y-129182857D01*
X143041666Y-129325714D01*
X143089285Y-129420952D01*
X143136904Y-129468571D01*
X143232142Y-129516190D01*
X143613095Y-129516190D01*
X142089285Y-129992381D02*
X142660714Y-129992381D01*
X142375000Y-129992381D02*
X142375000Y-128992381D01*
X142470238Y-129135238D01*
X142565476Y-129230476D01*
X142660714Y-129278095D01*
X143041666Y-127452381D02*
X143375000Y-126976190D01*
X143613095Y-127452381D02*
X143613095Y-126452381D01*
X143232142Y-126452381D01*
X143136904Y-126500000D01*
X143089285Y-126547619D01*
X143041666Y-126642857D01*
X143041666Y-126785714D01*
X143089285Y-126880952D01*
X143136904Y-126928571D01*
X143232142Y-126976190D01*
X143613095Y-126976190D01*
X142660714Y-126547619D02*
X142613095Y-126500000D01*
X142517857Y-126452381D01*
X142279761Y-126452381D01*
X142184523Y-126500000D01*
X142136904Y-126547619D01*
X142089285Y-126642857D01*
X142089285Y-126738095D01*
X142136904Y-126880952D01*
X142708333Y-127452381D01*
X142089285Y-127452381D01*
D12*
X148590000Y-110760000D03*
X148590000Y-112760000D03*
X146050000Y-112760000D03*
X146050000Y-110760000D03*
D13*
X123143333Y-104140000D03*
D14*
X123143333Y-106680000D03*
X123143333Y-109220000D03*
D15*
X123143333Y-111760000D03*
X123143333Y-114300000D03*
X123143333Y-116840000D03*
X123143333Y-119380000D03*
X123143333Y-121920000D03*
X123143333Y-124460000D03*
X123143333Y-127000000D03*
X123143333Y-129540000D03*
X123143333Y-132080000D03*
X123143333Y-134620000D03*
D16*
X152400000Y-104140000D03*
D17*
X154940000Y-104140000D03*
X157480000Y-104140000D03*
X160020000Y-104140000D03*
D13*
X165100000Y-104140000D03*
D15*
X165100000Y-106680000D03*
X165100000Y-109220000D03*
X165100000Y-111760000D03*
D13*
X165100000Y-134620000D03*
D15*
X165100000Y-132080000D03*
X165100000Y-129540000D03*
X165100000Y-127000000D03*
X165100000Y-124460000D03*
X165100000Y-121920000D03*
D13*
X129540000Y-104140000D03*
D14*
X129540000Y-106680000D03*
X129540000Y-109220000D03*
D15*
X129540000Y-111760000D03*
X129540000Y-114300000D03*
X129540000Y-116840000D03*
X129540000Y-119380000D03*
X129540000Y-121920000D03*
X129540000Y-124460000D03*
X129540000Y-127000000D03*
X129540000Y-129540000D03*
X129540000Y-132080000D03*
X129540000Y-134620000D03*
D18*
X143817340Y-124627640D03*
X143817340Y-124127260D03*
X143817340Y-123629420D03*
X143817340Y-123129040D03*
X143817340Y-122628660D03*
X143817340Y-122128280D03*
X143817340Y-121627900D03*
X143817340Y-121127520D03*
X143817340Y-120627140D03*
X143817340Y-120129300D03*
X143817340Y-119628920D03*
X143817340Y-119128540D03*
X143817340Y-118628160D03*
X143817340Y-118127780D03*
X143817340Y-117627400D03*
X143817340Y-117129560D03*
X143817340Y-116629180D03*
X143817340Y-116128800D03*
X143817340Y-115628420D03*
X143817340Y-115128040D03*
X143817340Y-114627660D03*
X143817340Y-114127280D03*
X150822660Y-114129820D03*
X150822660Y-114630200D03*
X150822660Y-115130580D03*
X150822660Y-115630960D03*
X150822660Y-116128800D03*
X150822660Y-116629180D03*
X150822660Y-117129560D03*
X150822660Y-117629940D03*
X150822660Y-118130320D03*
X150822660Y-118630700D03*
X150822660Y-119131080D03*
X150822660Y-119628920D03*
X150822660Y-120129300D03*
X150822660Y-120629680D03*
X150822660Y-121130060D03*
X150822660Y-121630440D03*
X150822660Y-122130820D03*
X150822660Y-122631200D03*
X150822660Y-123129040D03*
X150822660Y-123629420D03*
X150822660Y-124129800D03*
X150822660Y-124630180D03*
D19*
X147000000Y-129540000D03*
X145100000Y-129540000D03*
X147000000Y-127000000D03*
X145100000Y-127000000D03*
D20*
X146050000Y-110760000D02*
X148590000Y-110760000D01*
X138700000Y-110760000D02*
X146050000Y-110760000D01*
X122132064Y-137160000D02*
X165100000Y-137160000D01*
X165100000Y-137160000D02*
X166370000Y-137160000D01*
X165100000Y-134620000D02*
X165100000Y-137160000D01*
X167640000Y-135890000D02*
X167640000Y-134620000D01*
X167640000Y-134620000D02*
X167640000Y-104140000D01*
X165100000Y-134620000D02*
X167640000Y-134620000D01*
X120901705Y-107950000D02*
X120901705Y-135929641D01*
X120901705Y-135929641D02*
X122132064Y-137160000D01*
X166370000Y-137160000D02*
X167640000Y-135890000D01*
X167640000Y-104140000D02*
X167640000Y-103367226D01*
X165100000Y-104140000D02*
X167640000Y-104140000D01*
X166607927Y-102335153D02*
X165100000Y-102335153D01*
X165100000Y-102335153D02*
X152400611Y-102335153D01*
X165100000Y-104140000D02*
X165100000Y-102335153D01*
X167640000Y-103367226D02*
X166607927Y-102335153D01*
X152400611Y-102335153D02*
X152400000Y-102335764D01*
X120901705Y-107950000D02*
X120901705Y-104140000D01*
X120901705Y-104140000D02*
X120901705Y-103192798D01*
X123143333Y-104140000D02*
X120901705Y-104140000D01*
X121758739Y-102335764D02*
X123190000Y-102335764D01*
X123190000Y-102335764D02*
X129540000Y-102335764D01*
X123143333Y-104140000D02*
X123143333Y-102382431D01*
X123143333Y-102382431D02*
X123190000Y-102335764D01*
X129540000Y-102335764D02*
X152400000Y-102335764D01*
X129540000Y-104140000D02*
X129540000Y-102335764D01*
X138700000Y-110760000D02*
X135890000Y-107950000D01*
X152400000Y-102335764D02*
X152400000Y-104140000D01*
X135890000Y-107950000D02*
X120901705Y-107950000D01*
X120901705Y-103192798D02*
X121758739Y-102335764D01*
X165252400Y-104140000D02*
X165100000Y-104140000D01*
X165100000Y-134620000D02*
X165252400Y-134620000D01*
X165100000Y-103598457D02*
X165100000Y-104140000D01*
D21*
X152400000Y-105406000D02*
X152400000Y-104140000D01*
X153850043Y-106856043D02*
X152400000Y-105406000D01*
X152069877Y-115630960D02*
X153850043Y-113850794D01*
X150822660Y-115630960D02*
X152069877Y-115630960D01*
X153850043Y-113850794D02*
X153850043Y-106856043D01*
X148590000Y-112760000D02*
X148590000Y-117152595D01*
X148590000Y-117152595D02*
X149067345Y-117629940D01*
X149067345Y-117629940D02*
X150822660Y-117629940D01*
X160020000Y-104140000D02*
X160020000Y-111330163D01*
X160020000Y-111330163D02*
X153720223Y-117629940D01*
X153720223Y-117629940D02*
X151821960Y-117629940D01*
X151821960Y-117629940D02*
X150822660Y-117629940D01*
D22*
X145100000Y-127000000D02*
X145100000Y-129540000D01*
X145100000Y-125796000D02*
X145100000Y-127000000D01*
X146050000Y-119126000D02*
X146050000Y-124846000D01*
X146050000Y-124846000D02*
X145100000Y-125796000D01*
X146050000Y-118110000D02*
X146050000Y-119126000D01*
D21*
X150822660Y-119131080D02*
X146055080Y-119131080D01*
X146055080Y-119131080D02*
X146050000Y-119126000D01*
D22*
X146050000Y-112760000D02*
X146050000Y-118110000D01*
D21*
X146070320Y-118130320D02*
X146050000Y-118110000D01*
X150822660Y-118130320D02*
X146070320Y-118130320D01*
X150822660Y-114630200D02*
X152195880Y-114630200D01*
X152195880Y-114630200D02*
X152972077Y-113854003D01*
X152972077Y-113854003D02*
X152972077Y-108267824D01*
X152972077Y-108267824D02*
X151384253Y-106680000D01*
X151384253Y-106680000D02*
X130806000Y-106680000D01*
X130806000Y-106680000D02*
X129540000Y-106680000D01*
D20*
X129540000Y-106680000D02*
X123143333Y-106680000D01*
X129540000Y-109220000D02*
X123143333Y-109220000D01*
D21*
X129540000Y-109220000D02*
X134169815Y-109220000D01*
X134169815Y-109220000D02*
X139077095Y-114127280D01*
X139077095Y-114127280D02*
X143817340Y-114127280D01*
D20*
X129540000Y-111760000D02*
X123143333Y-111760000D01*
D21*
X129540000Y-111760000D02*
X133868954Y-111760000D01*
X133868954Y-111760000D02*
X137236994Y-115128040D01*
X137236994Y-115128040D02*
X142818040Y-115128040D01*
X142818040Y-115128040D02*
X143817340Y-115128040D01*
D20*
X129540000Y-114300000D02*
X123143333Y-114300000D01*
D21*
X129540000Y-114300000D02*
X132718071Y-114300000D01*
X132718071Y-114300000D02*
X134546871Y-116128800D01*
X142818040Y-116128800D02*
X143817340Y-116128800D01*
X134546871Y-116128800D02*
X142818040Y-116128800D01*
D20*
X123143333Y-116840000D02*
X129540000Y-116840000D01*
D21*
X129540000Y-116840000D02*
X133625135Y-116840000D01*
X133625135Y-116840000D02*
X133914695Y-117129560D01*
X133914695Y-117129560D02*
X142818040Y-117129560D01*
X142818040Y-117129560D02*
X143817340Y-117129560D01*
D20*
X129540000Y-119380000D02*
X123143333Y-119380000D01*
D21*
X129540000Y-119380000D02*
X132422495Y-119380000D01*
X132422495Y-119380000D02*
X133674715Y-118127780D01*
X133674715Y-118127780D02*
X142818040Y-118127780D01*
X142818040Y-118127780D02*
X143817340Y-118127780D01*
D20*
X123143333Y-121920000D02*
X129540000Y-121920000D01*
D21*
X129540000Y-121920000D02*
X131595990Y-121920000D01*
X142818040Y-119128540D02*
X143817340Y-119128540D01*
X131595990Y-121920000D02*
X134387450Y-119128540D01*
X134387450Y-119128540D02*
X142818040Y-119128540D01*
D20*
X129540000Y-124460000D02*
X128024000Y-124460000D01*
X128024000Y-124460000D02*
X123143333Y-124460000D01*
D21*
X129540000Y-124460000D02*
X132302987Y-124460000D01*
X132302987Y-124460000D02*
X136633687Y-120129300D01*
X136633687Y-120129300D02*
X142818040Y-120129300D01*
X142818040Y-120129300D02*
X143817340Y-120129300D01*
D20*
X123143333Y-127000000D02*
X129540000Y-127000000D01*
D21*
X129540000Y-127000000D02*
X131595990Y-127000000D01*
X137468470Y-121127520D02*
X142818040Y-121127520D01*
X131595990Y-127000000D02*
X137468470Y-121127520D01*
X142818040Y-121127520D02*
X143817340Y-121127520D01*
D20*
X129540000Y-129540000D02*
X123143333Y-129540000D01*
D21*
X129540000Y-129540000D02*
X132021189Y-129540000D01*
X132021189Y-129540000D02*
X139432909Y-122128280D01*
X139432909Y-122128280D02*
X142818040Y-122128280D01*
X142818040Y-122128280D02*
X143817340Y-122128280D01*
D20*
X123143333Y-132080000D02*
X129540000Y-132080000D01*
D21*
X132080000Y-132080000D02*
X141030960Y-123129040D01*
X141030960Y-123129040D02*
X143817340Y-123129040D01*
X129540000Y-132080000D02*
X132080000Y-132080000D01*
D20*
X129540000Y-134620000D02*
X128024000Y-134620000D01*
X128024000Y-134620000D02*
X123143333Y-134620000D01*
D21*
X129540000Y-134620000D02*
X131464494Y-134620000D01*
X131464494Y-134620000D02*
X141456854Y-124627640D01*
X141456854Y-124627640D02*
X143817340Y-124627640D01*
X154940000Y-104140000D02*
X154940000Y-114356198D01*
X152667018Y-116629180D02*
X150822660Y-116629180D01*
X154940000Y-114356198D02*
X152667018Y-116629180D01*
X157480000Y-104140000D02*
X157480000Y-112949420D01*
X157480000Y-112949420D02*
X153299860Y-117129560D01*
X153299860Y-117129560D02*
X151821960Y-117129560D01*
X151821960Y-117129560D02*
X150822660Y-117129560D01*
X165100000Y-109220000D02*
X163392352Y-109220000D01*
X163392352Y-109220000D02*
X152533971Y-120078381D01*
X152533971Y-120078381D02*
X150873579Y-120078381D01*
X150873579Y-120078381D02*
X150822660Y-120129300D01*
X165100000Y-111760000D02*
X162297888Y-111760000D01*
X162297888Y-111760000D02*
X153428208Y-120629680D01*
X151821960Y-120629680D02*
X150822660Y-120629680D01*
X153428208Y-120629680D02*
X151821960Y-120629680D01*
X150822660Y-123629420D02*
X149093337Y-123629420D01*
X149093337Y-123629420D02*
X147000000Y-125722757D01*
X147000000Y-125722757D02*
X147000000Y-127000000D01*
X165100000Y-129540000D02*
X161631189Y-129540000D01*
X161631189Y-129540000D02*
X156721369Y-124630180D01*
X156721369Y-124630180D02*
X150822660Y-124630180D01*
X165100000Y-124460000D02*
X160691121Y-124460000D01*
X160691121Y-124460000D02*
X159860541Y-123629420D01*
X159860541Y-123629420D02*
X151821960Y-123629420D01*
X151821960Y-123629420D02*
X150822660Y-123629420D01*
X150822660Y-124129800D02*
X149823360Y-124129800D01*
X149823360Y-124129800D02*
X148833002Y-125120158D01*
X148833002Y-125120158D02*
X148833002Y-128688089D01*
X148833002Y-128688089D02*
X147981091Y-129540000D01*
X147981091Y-129540000D02*
X147000000Y-129540000D01*
X165100000Y-127000000D02*
X161311842Y-127000000D01*
X161311842Y-127000000D02*
X158441642Y-124129800D01*
X158441642Y-124129800D02*
X151821960Y-124129800D01*
X151821960Y-124129800D02*
X150822660Y-124129800D01*
X165100000Y-121920000D02*
X160960414Y-121920000D01*
X160960414Y-121920000D02*
X159751374Y-123129040D01*
X159751374Y-123129040D02*
X151821960Y-123129040D01*
X151821960Y-123129040D02*
X150822660Y-123129040D01*
D23*
G36*
X160038785Y-131132404D02*
X160769386Y-131620577D01*
X161631189Y-131792000D01*
X161952712Y-131792000D01*
X161895425Y-132080000D01*
X162073509Y-132975290D01*
X161915330Y-133756400D01*
X161915330Y-134783000D01*
X134486302Y-134783000D01*
X139771810Y-129497492D01*
X139771810Y-132567000D01*
X145978191Y-132567000D01*
X145978191Y-132259284D01*
X146072027Y-132241627D01*
X146650000Y-132358670D01*
X147350000Y-132358670D01*
X148138219Y-132210356D01*
X148862150Y-131744520D01*
X149034157Y-131492779D01*
X149573495Y-131132404D01*
X150425406Y-130280494D01*
X150913579Y-129549892D01*
X150959895Y-129317046D01*
X151085002Y-128688089D01*
X151085002Y-126923310D01*
X151571960Y-126923310D01*
X151790547Y-126882180D01*
X155788561Y-126882180D01*
X160038785Y-131132404D01*
X160038785Y-131132404D01*
G37*
X160038785Y-131132404D02*
X160769386Y-131620577D01*
X161631189Y-131792000D01*
X161952712Y-131792000D01*
X161895425Y-132080000D01*
X162073509Y-132975290D01*
X161915330Y-133756400D01*
X161915330Y-134783000D01*
X134486302Y-134783000D01*
X139771810Y-129497492D01*
X139771810Y-132567000D01*
X145978191Y-132567000D01*
X145978191Y-132259284D01*
X146072027Y-132241627D01*
X146650000Y-132358670D01*
X147350000Y-132358670D01*
X148138219Y-132210356D01*
X148862150Y-131744520D01*
X149034157Y-131492779D01*
X149573495Y-131132404D01*
X150425406Y-130280494D01*
X150913579Y-129549892D01*
X150959895Y-129317046D01*
X151085002Y-128688089D01*
X151085002Y-126923310D01*
X151571960Y-126923310D01*
X151790547Y-126882180D01*
X155788561Y-126882180D01*
X160038785Y-131132404D01*
G36*
X163741572Y-114522954D02*
X164886025Y-114750600D01*
X165263000Y-114750600D01*
X165263000Y-118929400D01*
X164886025Y-118929400D01*
X163741572Y-119157046D01*
X162976874Y-119668000D01*
X160960414Y-119668000D01*
X160120093Y-119835150D01*
X160098611Y-119839423D01*
X159368010Y-120327595D01*
X158818565Y-120877040D01*
X156365656Y-120877040D01*
X163129030Y-114113667D01*
X163741572Y-114522954D01*
X163741572Y-114522954D01*
G37*
X163741572Y-114522954D02*
X164886025Y-114750600D01*
X165263000Y-114750600D01*
X165263000Y-118929400D01*
X164886025Y-118929400D01*
X163741572Y-119157046D01*
X162976874Y-119668000D01*
X160960414Y-119668000D01*
X160120093Y-119835150D01*
X160098611Y-119839423D01*
X159368010Y-120327595D01*
X158818565Y-120877040D01*
X156365656Y-120877040D01*
X163129030Y-114113667D01*
X163741572Y-114522954D01*
M02*
